HIERARCHY
ROOT Hips
{
	OFFSET -3.958830 18.904000 13.208200
	CHANNELS 6 Xposition Yposition Zposition Zrotation Yrotation Xrotation 
	JOINT LHipJoint
	{
		OFFSET 0.000000 0.000000 0.000000
		CHANNELS 3 Zrotation Yrotation Xrotation
		JOINT LeftUpLeg
		{
			OFFSET 1.800000 -1.400000 0.085000
			CHANNELS 3 Zrotation Yrotation Xrotation
			JOINT LeftLeg
			{
				OFFSET 2.215000 -6.000000 0.000000
				CHANNELS 3 Zrotation Yrotation Xrotation
				JOINT LeftFoot
				{
					OFFSET 2.500000 -6.900000 0.000000
					CHANNELS 3 Zrotation Yrotation Xrotation
					JOINT LeftToeBase
					{
						OFFSET 0.200000 -0.500000 1.950000
						CHANNELS 3 Zrotation Yrotation Xrotation
						End Site
						{
							OFFSET 0.000000 0.000000 0.000000
						}
					}
				}
			}
		}
	}
	JOINT RHipJoint
	{
		OFFSET 0.000000 0.000000 0.000000
		CHANNELS 3 Zrotation Yrotation Xrotation
		JOINT RightUpLeg
		{
			OFFSET -1.800000 -1.400000 0.085000
			CHANNELS 3 Zrotation Yrotation Xrotation
			JOINT RightLeg
			{
				OFFSET -2.215000 -6.000000 0.000000
				CHANNELS 3 Zrotation Yrotation Xrotation
				JOINT RightFoot
				{
					OFFSET -2.500000 -6.900000 0.000000
					CHANNELS 3 Zrotation Yrotation Xrotation
					JOINT RightToeBase
					{
						OFFSET -0.200000 -0.500000 1.950000
						CHANNELS 3 Zrotation Yrotation Xrotation
						End Site
						{
							OFFSET 0.000000 0.000000 0.000000
						}
					}
				}
			}
		}
	}
	JOINT LowerBack
	{
		OFFSET 0.000000 0.000000 0.000000
		CHANNELS 3 Zrotation Yrotation Xrotation
		JOINT Spine
		{
			OFFSET -0.087000 1.940000 -0.288900
			CHANNELS 3 Zrotation Yrotation Xrotation
			JOINT Spine1
			{
				OFFSET 0.000000 1.950000 0.060000
				CHANNELS 3 Zrotation Yrotation Xrotation
				JOINT Neck
				{
					OFFSET 0.000000 0.000000 0.000000
					CHANNELS 3 Zrotation Yrotation Xrotation
					JOINT Neck1
					{
						OFFSET 0.000000 1.600000 0.340000
						CHANNELS 3 Zrotation Yrotation Xrotation
						JOINT Head
						{
							OFFSET 0.000000 1.667000 -0.240000
							CHANNELS 3 Zrotation Yrotation Xrotation
							End Site
							{
								OFFSET 0.000000 0.000000 0.000000
							}
						}
					}
				}
				JOINT LeftShoulder
				{
					OFFSET 0.000000 0.000000 0.000000
					CHANNELS 3 Zrotation Yrotation Xrotation
					JOINT LeftArm
					{
						OFFSET 2.700000 1.550000 -0.730000
						CHANNELS 3 Zrotation Yrotation Xrotation
						JOINT LeftForeArm
						{
							OFFSET 5.450000 0.000000 0.000000
							CHANNELS 3 Zrotation Yrotation Xrotation
							JOINT LeftHand
							{
								OFFSET 3.450000 0.000000 0.000000
								CHANNELS 3 Zrotation Yrotation Xrotation
								JOINT LeftHandIndex1
								{
									OFFSET 0.750000 0.000000 0.000000
									CHANNELS 3 Zrotation Yrotation Xrotation
									End Site
									{
										OFFSET 0.000000 0.000000 0.000000
									}
								}
							}
						}
					}
				}
				JOINT RightShoulder
				{
					OFFSET 0.000000 0.000000 0.000000
					CHANNELS 3 Zrotation Yrotation Xrotation
					JOINT RightArm
					{
						OFFSET -2.700000 1.550000 -0.730000
						CHANNELS 3 Zrotation Yrotation Xrotation
						JOINT RightForeArm
						{
							OFFSET -5.450000 0.000000 0.000000
							CHANNELS 3 Zrotation Yrotation Xrotation
							JOINT RightHand
							{
								OFFSET -3.450000 0.000000 0.000000
								CHANNELS 3 Zrotation Yrotation Xrotation
								JOINT RightHandIndex1
								{
									OFFSET -0.750000 0.000000 0.000000
									CHANNELS 3 Zrotation Yrotation Xrotation
									End Site
									{
										OFFSET 0.000000 0.000000 0.000000
									}
								}
							}
						}
					}
				}
			}
		}
	}
}
MOTION
Frames: 9
Frame Time: 0.016667
0.340920 17.897950 0.294910 -18.383257 2.753750 -8.515724 -14.816845 12.105411 1.366022 23.889870 0.499055 -10.198498 0.345217 6.159514 17.526286 -0.695075 5.218898 2.834180 -0.046510 -0.498040 -0.029350 18.729167 -8.841827 6.051232 -3.030358 10.888129 -25.744315 37.772920 -70.373577 89.337098 -4.417211 -18.541270 -0.783153 -0.241480 0.579870 0.118220 -4.589767 -1.140631 -9.106130 0.154826 -2.973545 38.985772 -10.403985 -3.469742 -4.618606 -1.766321 -6.437199 -9.790649 -16.735640 9.725465 45.679408 14.830800 -0.017740 -18.695820 -18.562797 -5.303066 2.502600 -25.286930 0.224705 -5.423630 -97.702101 -48.907127 44.692803 -3.738584 3.063190 1.057890 -0.040210 -0.012390 0.079640 22.046794 8.444802 5.737178 49.137445 -0.662721 -10.762997 55.284711 35.872342 12.410714 2.142379 -1.046129 -0.575910 0.647580 0.430200 -0.205320 
0.356020 17.896990 0.317290 -18.271671 2.175927 -7.997757 -14.757908 12.061363 1.293865 23.363706 0.490606 -10.261159 0.711762 6.064656 17.849327 -0.671823 5.123019 2.873628 -0.056870 -0.492660 -0.065970 18.783358 -8.930253 6.113302 -4.079624 10.914420 -26.103092 38.973982 -70.682458 88.404499 -4.361433 -18.318077 -0.735373 -0.249660 0.586630 0.116000 -4.744323 -0.871578 -9.083636 1.021842 -3.186612 38.152803 -11.148189 -3.884407 -5.486787 -2.003521 -6.741448 -9.634578 -17.226082 9.920535 45.148973 15.397980 -0.377390 -18.107300 -18.101766 -4.200382 2.454004 -25.780451 0.581582 -5.017797 -97.703054 -48.823169 45.017633 -3.732164 3.096482 1.029080 -0.037640 -0.021690 0.091000 21.944650 7.400793 5.365557 50.686902 -0.569403 -10.311473 53.522626 35.020799 11.773857 2.157542 -1.048053 -0.556550 0.630210 0.426560 -0.182290 
0.373480 17.897580 0.336990 -18.156368 1.678878 -7.379354 -14.706466 12.017202 1.253889 22.903728 0.445230 -10.560642 0.882718 6.009608 18.166949 -0.622909 5.016069 2.910490 -0.048180 -0.453200 -0.091940 18.827885 -9.028092 6.150350 -5.264427 10.854723 -26.781265 41.030027 -70.752114 86.379995 -4.283522 -17.957093 -0.656600 -0.249400 0.582920 0.124850 -4.878235 -0.609302 -9.071457 1.876758 -3.254573 37.015867 -12.078421 -4.087302 -5.971108 -2.059795 -6.589769 -9.466886 -16.758914 9.867698 45.114211 15.788380 -0.528500 -17.137760 -18.222197 -3.664122 2.340624 -25.435578 0.610609 -4.607913 -97.518277 -48.530435 45.078161 -3.720406 3.145713 0.980520 -0.030310 -0.016850 0.111390 22.050503 6.615956 5.148349 52.241789 -0.748147 -10.154733 51.574633 34.768603 11.219245 2.175816 -1.066327 -0.511210 0.597840 0.401800 -0.149550 
0.390720 17.897190 0.349870 -18.071337 1.975325 -7.050886 -14.681088 12.056982 1.237958 22.334661 0.315835 -10.986678 1.449828 5.777536 18.228919 -0.613095 4.879157 2.969536 -0.067700 -0.454640 -0.128280 18.840563 -9.144223 6.113438 -6.407735 10.122922 -26.897883 44.086277 -70.537995 82.751867 -4.128717 -17.334897 -0.519088 -0.259620 0.602150 0.108820 -4.935083 -0.543719 -9.028449 2.302177 -3.529083 36.320337 -12.275997 -4.428605 -6.032422 -2.169459 -6.620364 -9.666306 -16.827565 9.884089 45.033301 16.429480 -0.968050 -16.103770 -17.623599 -3.589385 2.628216 -26.661663 0.753764 -4.574743 -96.909461 -48.913426 45.049341 -3.724404 3.141117 0.951560 -0.019820 -0.032520 0.121180 21.658348 6.443467 5.211079 53.503301 -0.961285 -10.330799 50.510416 34.995615 10.981924 2.182170 -1.059680 -0.504100 0.600560 0.400660 -0.128270 
0.408530 17.897180 0.363590 -18.247606 2.184200 -6.938708 -14.644103 12.126629 1.296988 22.206963 0.216249 -11.069729 1.615328 5.613303 17.860429 -0.579254 4.763108 3.006592 -0.065460 -0.408980 -0.186880 18.854080 -9.391215 5.911858 -7.295261 9.061253 -26.786787 51.250588 -69.060125 74.089644 -3.830388 -16.080446 -0.256014 -0.253460 0.610590 0.116960 -5.014023 -0.409392 -8.940199 3.214322 -3.886914 35.728362 -12.764273 -4.665835 -5.652680 -2.238481 -6.636064 -9.813885 -16.850027 9.754752 44.609806 17.220610 -1.490340 -15.611230 -17.456892 -3.837114 2.821184 -26.936790 0.656282 -4.462025 -97.662321 -49.076739 45.805746 -3.714300 3.188909 0.909510 -0.010320 -0.030870 0.147870 21.590589 6.508973 5.415015 54.170370 -1.591869 -10.765050 50.586000 36.098580 11.323155 2.179714 -1.094655 -0.463670 0.576890 0.389710 -0.086430 
0.415680 17.909290 0.364550 -18.090522 2.452641 -7.215448 -14.665028 12.278976 1.377081 21.978120 0.145100 -10.963308 1.678407 5.518534 17.566072 -0.583123 4.739154 3.016523 -0.065460 -0.429140 -0.158870 18.802530 -9.547640 5.714104 -8.119607 8.084307 -25.879134 55.867976 -66.860294 67.669767 -3.614190 -15.208607 -0.080653 -0.265990 0.599490 0.117900 -4.918787 -0.551646 -8.877592 2.731723 -3.680578 35.530493 -12.238643 -4.292902 -4.636324 -2.139702 -6.429136 -10.418982 -16.902793 9.615767 45.919662 17.264690 -1.755680 -14.795740 -17.652534 -5.182615 3.325681 -27.663430 0.813332 -4.948018 -97.203663 -49.868666 45.793330 -3.716134 3.165787 0.920170 -0.017090 -0.024450 0.137040 21.722249 7.824288 6.128679 54.311464 -2.355050 -11.934150 50.526309 37.792486 11.588212 2.176836 -1.088150 -0.465410 0.573150 0.388240 -0.099530 
0.439030 17.922900 0.362060 -18.609554 1.919888 -7.576481 -14.651402 12.338206 1.476127 22.618672 0.256754 -10.284750 1.246212 5.591839 16.736534 -0.592526 4.826155 2.975300 -0.076600 -0.463490 -0.149600 18.798545 -9.653783 5.536054 -8.288133 7.886366 -24.818373 58.344496 -63.971337 63.133318 -3.476186 -14.701429 0.011511 -0.280810 0.592130 0.129740 -4.934137 -0.559163 -8.839806 3.923198 -3.890315 35.441960 -12.607873 -3.943772 -3.879929 -1.855621 -6.609872 -11.069271 -17.924058 9.978658 47.501231 16.963130 -1.937530 -14.187370 -18.620277 -6.600581 3.735718 -27.761106 1.313973 -5.442720 -96.549048 -50.254895 45.250568 -3.722267 3.139631 0.948780 -0.021760 -0.017900 0.117620 22.138014 9.415151 7.013761 54.111484 -3.228214 -13.125253 50.601115 39.297923 11.807868 2.161651 -1.070691 -0.474750 0.568080 0.410650 -0.116160 
0.467180 17.925960 0.357540 -19.422658 0.893620 -7.716644 -14.618031 12.338330 1.567667 23.573953 0.420909 -9.710318 0.726478 5.761111 16.098205 -0.589112 4.958077 2.917476 -0.085340 -0.478910 -0.151680 18.827792 -9.736000 5.370185 -8.230825 8.135882 -24.419624 61.253684 -60.372396 57.970133 -3.338894 -14.183145 0.110367 -0.284330 0.593380 0.132020 -5.026563 -0.465625 -8.791655 6.090589 -4.328125 35.271385 -13.593109 -3.653243 -3.240981 -1.540600 -7.096601 -11.463854 -19.550155 10.765031 48.195399 16.990560 -2.050530 -14.134400 -19.337012 -7.298350 3.828416 -28.145655 1.300498 -5.719604 -95.563912 -50.034437 44.041305 -3.720857 3.115942 0.967370 -0.029940 -0.012510 0.104990 22.171646 10.366284 7.627635 54.016328 -3.939137 -14.009030 50.979883 40.590478 12.182248 2.153993 -1.055660 -0.483340 0.578240 0.430660 -0.119120 
0.495850 17.936300 0.342030 -20.132542 -0.163645 -7.958908 -14.599593 12.355196 1.604543 24.248552 0.577335 -9.131189 0.708813 5.826028 15.743638 -0.648972 5.103791 2.866686 -0.075520 -0.508210 -0.115820 18.848915 -9.750908 5.273151 -8.482828 8.570148 -24.247782 62.800112 -57.027101 54.288635 -3.241114 -13.811510 0.181086 -0.272830 0.595940 0.126010 -5.088812 -0.452142 -8.734181 7.982394 -4.823831 35.227562 -14.523426 -3.465046 -2.396416 -1.095743 -7.673990 -11.663205 -21.526550 11.930817 48.976577 16.329800 -1.766440 -14.646970 -20.407962 -7.965672 3.732885 -28.385546 1.120674 -6.105719 -92.902444 -49.747528 41.576219 -3.716153 3.055788 1.027730 -0.042190 -0.013180 0.092520 22.309603 11.288455 8.011130 53.304434 -3.888785 -14.407289 51.367568 40.997027 12.313430 2.127726 -1.023342 -0.531210 0.618700 0.453580 -0.154750 
